<?xml version="1.0" encoding="UTF-8"?><!DOCTYPE svg PUBLIC "-//W3C//DTD SVG 1.1//EN" "http://www.w3.org/Graphics/SVG/1.1/DTD/svg11.dtd"><svg xmlns="http://www.w3.org/2000/svg"><symbol id="icon-arrow-left" viewBox="0 0 451.847 451.847">
    <path d="M97.141 225.92c0-8.095 3.091-16.192 9.259-22.366L300.689 9.27c12.359-12.359 32.397-12.359 44.751 0 12.354 12.354 12.354 32.388 0 44.748L173.525 225.92l171.903 171.909c12.354 12.354 12.354 32.391 0 44.744-12.354 12.365-32.386 12.365-44.745 0l-194.29-194.281c-6.167-6.177-9.252-14.274-9.252-22.372z"/>
</symbol><symbol id="icon-arrow-right" viewBox="0 0 451.846 451.847">
    <path d="M345.441 248.292L151.154 442.573c-12.359 12.365-32.397 12.365-44.75 0-12.354-12.354-12.354-32.391 0-44.744L278.318 225.92 106.409 54.017c-12.354-12.359-12.354-32.394 0-44.748 12.354-12.359 32.391-12.359 44.75 0l194.287 194.284c6.177 6.18 9.262 14.271 9.262 22.366 0 8.099-3.091 16.196-9.267 22.373z"/>
</symbol><symbol id="icon-article" viewBox="0 0 60 60">
    <g>
        <path d="M42.5 22h-25a1 1 0 1 0 0 2h25a1 1 0 1 0 0-2z"/>
        <path d="M17.5 16h10a1 1 0 1 0 0-2h-10a1 1 0 1 0 0 2z"/>
        <path d="M42.5 30h-25a1 1 0 1 0 0 2h25a1 1 0 1 0 0-2z"/>
        <path d="M42.5 38h-25a1 1 0 1 0 0 2h25a1 1 0 1 0 0-2z"/>
        <path d="M42.5 46h-25a1 1 0 1 0 0 2h25a1 1 0 1 0 0-2z"/>
        <path d="M38.914 0H6.5v60h47V14.586L38.914 0zm.586 3.414L50.086 14H39.5V3.414zM8.5 58V2h29v14h14v42h-43z"/>
    </g>
</symbol><symbol id="icon-down-arrow" viewBox="0 0 129 129">
    <path d="M121.3 34.6c-1.6-1.6-4.2-1.6-5.8 0l-51 51.1-51.1-51.1c-1.6-1.6-4.2-1.6-5.8 0-1.6 1.6-1.6 4.2 0 5.8l53.9 53.9c.8.8 1.8 1.2 2.9 1.2 1 0 2.1-.4 2.9-1.2l53.9-53.9c1.7-1.6 1.7-4.2.1-5.8z"/>
</symbol><symbol id="icon-facebook" viewBox="0 0 10 19">
    <title>
        facebook
    </title>
    <path d="M9.766.157v2.946H8.014c-.64 0-1.071.134-1.295.402-.223.268-.335.67-.335 1.205v2.11h3.27l-.435 3.303H6.384v8.471H2.97v-8.47H.123V6.82H2.97V4.387c0-1.384.387-2.457 1.161-3.22C4.904.404 5.934.023 7.222.023c1.093 0 1.941.045 2.544.134z" fill-rule="evenodd"/>
</symbol><symbol id="icon-gallery" viewBox="0 0 45.964 45.964">
    <g>
        <path d="M7.071 30.834V11.062H4.042C1.803 11.062 0 12.893 0 15.13v26.732a4.04 4.04 0 0 0 4.042 4.051h26.733c2.238 0 4.076-1.811 4.076-4.051v-2.92H15.179c-4.446.001-8.108-3.661-8.108-8.108z"/>
        <path d="M41.913.05H15.179c-2.238 0-4.066 1.813-4.066 4.051v26.733a4.075 4.075 0 0 0 4.066 4.067h26.734c2.237 0 4.051-1.826 4.051-4.067V4.102A4.05 4.05 0 0 0 41.913.05zm-.55 28.539a1.261 1.261 0 0 1-1.12.656H17.336c-.403 0-.782-.18-1.022-.502a1.266 1.266 0 0 1-.197-1.123l3.277-10.839a1.953 1.953 0 0 1 3.462-.564l4.582 6.437a1.951 1.951 0 0 0 2.689.484l4.219-2.865a1.949 1.949 0 0 1 1.48-.299c.515.102.966.408 1.253.848l4.229 6.472c.256.393.277.885.055 1.295z"/>
    </g>
</symbol><symbol id="icon-left-quote" viewBox="0 0 95.333 95.332">
    <g>
        <path d="M30.512 43.939c-2.348-.676-4.696-1.019-6.98-1.019-3.527 0-6.47.806-8.752 1.793 2.2-8.054 7.485-21.951 18.013-23.516a2.501 2.501 0 0 0 2.04-1.799l2.301-8.23a2.5 2.5 0 0 0-2.068-3.15 17.477 17.477 0 0 0-2.354-.16c-12.637 0-25.152 13.19-30.433 32.076-3.1 11.08-4.009 27.738 3.627 38.223 4.273 5.867 10.507 9 18.529 9.313l.098.002c9.898 0 18.675-6.666 21.345-16.209a22.032 22.032 0 0 0-2.032-16.851c-2.875-5.105-7.61-8.826-13.334-10.473z"/>
        <path d="M92.471 54.413c-2.875-5.106-7.61-8.827-13.334-10.474-2.348-.676-4.696-1.019-6.979-1.019a21.94 21.94 0 0 0-8.753 1.793c2.2-8.054 7.485-21.951 18.014-23.516a2.503 2.503 0 0 0 2.04-1.799l2.301-8.23a2.5 2.5 0 0 0-2.068-3.15 17.455 17.455 0 0 0-2.354-.16c-12.637 0-25.152 13.19-30.434 32.076-3.099 11.08-4.008 27.738 3.629 38.225 4.272 5.866 10.507 9 18.528 9.312l.099.002c9.897 0 18.675-6.666 21.345-16.209a22.045 22.045 0 0 0-2.034-16.851z"/>
    </g>
</symbol><symbol id="icon-link" viewBox="0 0 31.891 31.891">
    <path d="M30.543 5.74l-4.078-4.035c-1.805-1.777-4.736-1.789-6.545-.02l-4.525 4.414a4.486 4.486 0 0 0-.02 6.424l2.586-2.484c-.262-.791.061-1.697.701-2.324l2.879-2.807a2.346 2.346 0 0 1 3.275.01l2.449 2.42c.9.891.896 2.326-.01 3.213l-2.879 2.809c-.609.594-1.609.92-2.385.711l-2.533 2.486a4.688 4.688 0 0 0 6.545.02l4.52-4.41a4.482 4.482 0 0 0 .02-6.427z"/>
    <path d="M13.975 21.894c.215.773-.129 1.773-.752 2.381l-2.689 2.627c-.922.9-2.414.895-3.332-.012l-2.498-2.461a2.29 2.29 0 0 1 .012-3.275l2.691-2.627c.656-.637 1.598-.961 2.42-.689l2.594-2.57c-1.836-1.811-4.824-1.82-6.668-.02l-4.363 4.26a4.574 4.574 0 0 0-.02 6.549l4.154 4.107c1.834 1.809 4.82 1.818 6.668.018l4.363-4.26a4.576 4.576 0 0 0 .02-6.547l-2.6 2.519z"/>
    <path d="M11.139 20.722a1.581 1.581 0 0 0 2.234.008l7.455-7.416a1.576 1.576 0 0 0 .008-2.234 1.58 1.58 0 0 0-2.23-.006l-7.457 7.414a1.58 1.58 0 0 0-.01 2.234z"/>
</symbol></svg>